<!DOCTYPE svg PUBLIC "-//W3C//DTD SVG 1.1//EN" "http://www.w3.org/Graphics/SVG/1.1/DTD/svg11.dtd">
<!-- Uploaded to: SVG Repo, www.svgrepo.com, Transformed by: SVG Repo Mixer Tools -->
<svg fill="gray" height="800px" width="800px" version="1.1" id="Layer_1" xmlns="http://www.w3.org/2000/svg" xmlns:xlink="http://www.w3.org/1999/xlink" viewBox="0 0 511.64 511.64" xml:space="preserve" stroke="gray">
<g id="SVGRepo_bgCarrier" stroke-width="0"/>
<g id="SVGRepo_tracerCarrier" stroke-linecap="round" stroke-linejoin="round"/>
<g id="SVGRepo_iconCarrier"> <g transform="translate(0 -1)"> <g> <g> <path d="M504.973,377.258c-19.435-36.736-81.472-73.813-88.704-78.059c-14.421-8.213-29.696-10.731-42.987-7.019 c-10.432,2.88-18.965,9.301-24.789,18.624c-8.128,9.685-18.176,21.077-20.288,22.933c-16.384,11.115-27.179,9.941-41.323-4.203 L183.096,225.728c-14.336-14.336-15.403-24.747-4.757-40.512c2.432-2.88,13.824-12.949,23.488-21.077 c9.323-5.824,15.723-14.357,18.624-24.768c3.691-13.333,1.216-28.608-7.147-43.221c-4.096-6.997-41.216-69.056-77.909-88.491 C113.187-4.075,86.328-0.043,68.557,17.728L45.645,40.64C4.195,82.069-46.237,170.645,81.421,298.304L214.328,431.21 c61.141,61.141,113.301,81.429,155.627,81.429c46.059,0,80.448-24.043,102.037-45.632l22.912-22.933 C512.675,426.325,516.728,399.466,504.973,377.258z"/> <path d="M255.578,214.393c23.531,0,42.667,19.136,42.667,42.667c0,11.776,9.536,21.333,21.333,21.333s21.333-9.557,21.333-21.333 c0-47.061-38.272-85.333-85.333-85.333c-11.797,0-21.333,9.557-21.333,21.333S243.781,214.393,255.578,214.393z"/> <path d="M255.578,129.06c70.592,0,128,57.408,128,128c0,11.776,9.536,21.333,21.333,21.333c11.797,0,21.333-9.557,21.333-21.333 c0-94.101-76.565-170.667-170.667-170.667c-11.797,0-21.333,9.557-21.333,21.333S243.781,129.06,255.578,129.06z"/> <path d="M276.911,43.727c105.877,0,192,86.144,192,192c0,11.776,9.536,21.333,21.333,21.333s21.333-9.557,21.333-21.333 c0-129.387-105.28-234.667-234.667-234.667c-11.797,0-21.333,9.557-21.333,21.333S265.114,43.727,276.911,43.727z"/> </g> </g> </g> </g>
</svg>